<?xml version="1.0" encoding="UTF-8"?>
<svg width="139.25mm" height="21.131mm" version="1.1" viewBox="0 0 139.25 21.131" xmlns="http://www.w3.org/2000/svg" xmlns:cc="http://creativecommons.org/ns#" xmlns:dc="http://purl.org/dc/elements/1.1/" xmlns:rdf="http://www.w3.org/1999/02/22-rdf-syntax-ns#">
 <metadata>
  <rdf:RDF>
   <cc:Work rdf:about="">
    <dc:format>image/svg+xml</dc:format>
    <dc:type rdf:resource="http://purl.org/dc/dcmitype/StillImage"/>
    <dc:title/>
   </cc:Work>
  </rdf:RDF>
 </metadata>
 <g transform="translate(-2.2269 -.73201)">
  <g fill="#333" aria-label="&lt;asurbernardo/&gt;">
   <path d="m11.131 5.7223-8.9038 5.4998v1.9915l8.7996 5.4998 1.0421-1.4242-8.1744-5.0598 8.1744-5.0135z" fill="#ef8b80" stroke-width=".26458"/>
   <g fill="#333" stroke-width=".26458">
    <path d="m25.137 16.814v-5.8471c0-2.4083-1.5284-3.9367-4.5619-3.9367-1.181 0-2.5009 0.20841-3.983 0.76418l0.50945 1.4705c1.2621-0.43998 2.362-0.62524 3.1725-0.62524 1.8178 0 2.9062 0.65997 2.9062 2.4199v1.0189h-1.7947c-3.7051 0-5.7198 1.3894-5.7198 3.9019 0 2.2694 1.4936 3.763 3.9367 3.763 1.5747 0 2.9525-0.57892 3.8209-1.7136 0.34735 1.0884 1.181 1.5747 2.2346 1.7136l0.47472-1.3663c-0.68313-0.20841-0.99575-0.57892-0.99575-1.5631zm-5.0366 1.4473c-1.5862 0-2.3504-0.78734-2.3504-2.3041 0-1.5631 0.98417-2.5588 3.6704-2.5588h1.7599v3.1378c-0.72944 1.0884-1.8757 1.7252-3.0799 1.7252z"/>
    <path d="m34.443 18.134c-1.4357 0-2.7094-0.52103-3.6588-1.3199l-1.1115 1.2852c1.0421 0.90312 2.5704 1.6441 4.7703 1.6441 2.6052 0 5.1408-1.0305 5.1408-3.6356 0-2.281-1.5747-3.1146-3.9598-3.763-2.4662-0.67155-3.242-1.0536-3.242-2.142 0-0.93786 0.71786-1.5978 2.6399-1.5978 1.5747 0 2.6283 0.46314 3.543 1.0884l0.85681-1.3199c-1.0189-0.7526-2.4662-1.3431-4.423-1.3431-2.7557 0-4.6314 1.2736-4.6314 3.323 0 2.1189 1.621 2.883 4.1567 3.5083 2.582 0.64839 2.9525 1.2389 2.9525 2.3388 0 1.181-1.1578 1.9336-3.0336 1.9336z"/>
    <path d="m46.134 7.2854h-1.9452v8.8691c0 2.2578 1.1578 3.5893 3.5199 3.5893 1.4242 0 2.9409-0.67155 3.9019-1.9104l0.1621 1.6441h1.6557v-12.192h-1.9452v8.9733c-0.65997 1.0421-1.9683 1.9336-3.2999 1.9336-1.4126 0-2.0494-0.67155-2.0494-2.2694z"/>
    <path d="m66.312 7.0191c-2.2115 0-3.4388 1.1463-4.3767 3.1493l-0.35893-2.883h-3.3809v1.4936h1.8989v9.2049h-1.8989v1.4936h6.3218v-1.4936h-2.4778v-5.164c0.81049-2.6862 2.1304-4.0061 4.0177-4.0061h0.10421v2.5936h1.5978l0.27788-4.1219c-0.55577-0.1621-1.0421-0.2663-1.7252-0.2663z"/>
   </g>
   <path d="m129.55 3.8466 1.1463-2.3504-1.5515-0.76418-9.9112 20.436 1.5747 0.69471 7.9776-16.441 11.023 6.8081-8.1744 5.0482 1.0536 1.4357 8.788-5.4998v-1.9915z" fill="#ef8b80" stroke-width=".26458"/>
   <g transform="translate(-3.8707)" stroke-width=".070003" aria-label=".dev">
    <path d="m72.004 17.867c0 1.1463 0.87995 2.0494 2.0262 2.0494 1.1694 0 2.0494-0.90311 2.0494-2.0494 0-1.1231-0.87995-2.0262-2.0494-2.0262-1.1463 0-2.0262 0.90311-2.0262 2.0262z" fill="#ef8b80"/>
    <g fill="#333">
     <path d="m90.619 2.306v6.3334c-0.81048-0.94942-1.8641-1.4357-3.2651-1.4357-3.0104 0-4.7819 2.6978-4.7819 6.3681 0 3.7745 1.4589 6.3449 4.6429 6.3449 1.3431 0 2.5472-0.57892 3.4619-1.8757l0.18525 1.6094h1.702v-17.101zm-2.7556 6.4607c1.1231 0 2.0957 0.57892 2.7556 1.5631v6.0902c-0.65996 0.99574-1.621 1.922-2.9988 1.922-1.9104 0-2.9293-1.6094-2.9293-4.7703 0-3.2188 1.1347-4.805 3.1725-4.805z"/>
     <path d="m98.743 14.243h8.1975c0.0232-0.2663 0.0463-0.64839 0.0463-1.0652 0-3.7051-1.8757-5.9744-4.9555-5.9744-3.2419 0-5.326 2.6746-5.326 6.3681 0 3.7861 2.0146 6.3449 5.5808 6.3449 1.5168 0 3.0567-0.54418 4.1914-1.4357l-0.91469-1.2852c-1.0768 0.72944-2.0146 1.0999-3.2535 1.0999-1.8873 0-3.4619-1.2273-3.5661-4.0524zm3.3114-5.4418c1.8294 0 3.0104 1.3315 3.0567 3.9366h-6.3565c0.1621-2.6862 1.482-3.9366 3.2998-3.9366z"/>
     <path d="m121.27 7.4584h-2.0146l-3.4851 10.421-3.5314-10.421h-2.061l4.3998 12.192h2.2578z"/>
    </g>
   </g>
  </g>
 </g>
</svg>
